<svg width="32" height="32" viewBox="0 0 32 32" fill="none" xmlns="http://www.w3.org/2000/svg">
<path d="M31.5197 19.8703C29.3827 28.4418 20.7012 33.6583 12.1287 31.5208C3.55968 29.3838 -1.65682 20.7018 0.481183 12.1308C2.61718 3.55831 11.2987 -1.65869 19.8687 0.47831C28.4407 2.61531 33.6567 11.2983 31.5197 19.8703Z" fill="#F7931A"/>
<path d="M23.0561 13.7207C23.3746 11.5917 21.7536 10.4472 19.5371 9.6837L20.2561 6.7997L18.5006 6.3622L17.8006 9.1702C17.3391 9.0552 16.8651 8.9467 16.3941 8.8392L17.0991 6.0127L15.3446 5.5752L14.6251 8.4582C14.2431 8.3712 13.8681 8.2852 13.5041 8.1947L13.5061 8.1857L11.0851 7.5812L10.6181 9.4562C10.6181 9.4562 11.9206 9.7547 11.8931 9.7732C12.6041 9.9507 12.7326 10.4212 12.7111 10.7942L11.8921 14.0797C11.9411 14.0922 12.0046 14.1102 12.0746 14.1382C12.0161 14.1237 11.9536 14.1077 11.8891 14.0922L10.7411 18.6947C10.6541 18.9107 10.4336 19.2347 9.93656 19.1117C9.95406 19.1372 8.66056 18.7932 8.66056 18.7932L7.78906 20.8027L10.0736 21.3722C10.4986 21.4787 10.9151 21.5902 11.3251 21.6952L10.5986 24.6122L12.3521 25.0497L13.0716 22.1637C13.5506 22.2937 14.0156 22.4137 14.4706 22.5267L13.7536 25.3992L15.5091 25.8367L16.2356 22.9252C19.2291 23.4917 21.4801 23.2632 22.4276 20.5557C23.1911 18.3757 22.3896 17.1182 20.8146 16.2982C21.9616 16.0337 22.8256 15.2792 23.0561 13.7207ZM19.0451 19.3452C18.5026 21.5252 14.8321 20.3467 13.6421 20.0512L14.6061 16.1867C15.7961 16.4837 19.6121 17.0717 19.0451 19.3452ZM19.5881 13.6892C19.0931 15.6722 16.0381 14.6647 15.0471 14.4177L15.9211 10.9127C16.9121 11.1597 20.1036 11.6207 19.5881 13.6892Z" fill="white"/>
</svg>
