<svg width="14" height="14" viewBox="0 0 14 14" fill="none" xmlns="http://www.w3.org/2000/svg">
<path d="M8.01157 7L13.1385 0.888672C13.2245 0.78711 13.1522 0.632812 13.0194 0.632812H11.4608C11.369 0.632812 11.2811 0.673828 11.2206 0.744141L6.99204 5.78516L2.76352 0.744141C2.70493 0.673828 2.61704 0.632812 2.52329 0.632812H0.964695C0.831883 0.632812 0.759617 0.78711 0.845554 0.888672L5.97251 7L0.845554 13.1113C0.826304 13.134 0.813953 13.1617 0.80997 13.1911C0.805986 13.2206 0.810536 13.2505 0.82308 13.2775C0.835625 13.3044 0.855636 13.3272 0.880738 13.3431C0.90584 13.359 0.934979 13.3674 0.964695 13.3672H2.52329C2.61509 13.3672 2.70298 13.3262 2.76352 13.2559L6.99204 8.21484L11.2206 13.2559C11.2791 13.3262 11.367 13.3672 11.4608 13.3672H13.0194C13.1522 13.3672 13.2245 13.2129 13.1385 13.1113L8.01157 7Z"/>
</svg>