<svg width="32" height="32" viewBox="0 0 32 32" fill="none" xmlns="http://www.w3.org/2000/svg">
<path d="M16 32C24.8366 32 32 24.8366 32 16C32 7.16344 24.8366 0 16 0C7.16344 0 0 7.16344 0 16C0 24.8366 7.16344 32 16 32Z" fill="#F5AC37"/>
<path fill-rule="evenodd" clip-rule="evenodd" d="M15.765 7H8.52V12.8444H6V14.9381H8.52V17.1372H6V19.231H8.52V25H15.765C20.115 25 23.43 22.6502 24.705 19.231H27V17.1372H25.2C25.245 16.7607 25.26 16.3841 25.26 16.0075V15.9623C25.26 15.6159 25.245 15.2845 25.2 14.9531H27V12.8594H24.75C23.505 9.37992 20.16 7 15.765 7ZM10.545 23.1021V19.2159H22.485C21.375 21.5506 18.975 23.1021 15.765 23.1021H10.545ZM10.545 17.1222H23.1C23.145 16.7757 23.175 16.4142 23.175 16.0377V15.9925C23.175 15.631 23.145 15.2845 23.1 14.9381H10.545V17.1222ZM22.5 12.8444C21.39 10.4795 18.99 8.88285 15.765 8.88285H10.545V12.8444H22.5Z" fill="white"/>
</svg>
