<svg width="12" height="12" viewBox="0 0 12 12" fill="none" xmlns="http://www.w3.org/2000/svg">
<circle cx="6" cy="6" r="6" fill="#00C7CF"/>
<path d="M3.8414 9.5168C3.86137 9.5751 3.79345 9.62737 3.74351 9.59118C3.31401 9.27957 2.23326 8.23415 2.8905 5.89404C2.8925 5.89203 2.8925 5.89203 2.8925 5.89002C3.03833 5.44773 3.25208 5.01549 3.54774 4.6114C4.59652 3.17998 5.92898 2.64924 6.96977 2.47232C7.70692 2.34566 8.29823 2.39592 8.54195 2.42809C8.61986 2.43814 8.68578 2.48438 8.72174 2.55475C9.0194 3.11163 10.216 5.73119 8.02255 7.96074C7.3793 8.61613 6.18268 9.05038 4.76632 9.33586C4.76233 9.32581 4.76033 9.31776 4.75833 9.30771C4.66844 9.04435 4.04516 7.03997 5.07397 5.68696C5.83708 4.68377 6.74803 4.40834 7.38329 4.33195C7.47918 4.3219 7.51514 4.45257 7.42524 4.49278C6.99574 4.68176 6.41442 5.0557 5.94895 5.78145C5.36563 6.69418 5.3896 7.63304 5.48349 8.19596C6.21664 7.98888 6.96178 7.69737 7.35533 7.2973C8.14042 6.49716 8.47603 5.55026 8.35017 4.47871C8.34818 4.47469 8.34818 4.47067 8.34818 4.46665C8.34818 4.46262 8.34818 4.4586 8.34618 4.45458C8.29024 4.00224 8.16039 3.61021 8.05052 3.33881C8.00857 3.33881 7.96462 3.3368 7.91867 3.3368C7.77484 3.3368 7.61103 3.34283 7.43124 3.36293C7.41725 3.36494 7.40527 3.36494 7.38929 3.36695C7.28541 3.377 7.17154 3.39108 7.05767 3.41118C6.21465 3.55593 5.13789 3.98415 4.29088 5.14214C3.81143 5.79754 3.60167 6.5434 3.54973 7.27519C3.51577 7.62902 3.52976 7.98084 3.56971 8.30251C3.56971 8.30251 3.64762 8.9378 3.8414 9.5168Z" fill="#FCFCFC"/>
</svg>
