<svg width="6" height="6" viewBox="0 0 6 6" fill="none" xmlns="http://www.w3.org/2000/svg">
<g opacity="0.3">
<path d="M2.67489 0.937142L0.612948 4.49946C0.579954 4.55646 0.562555 4.62115 0.5625 4.68701C0.562446 4.75287 0.579738 4.81758 0.612637 4.87464C0.645537 4.9317 0.692882 4.97908 0.749911 5.01203C0.80694 5.04497 0.87164 5.06232 0.937501 5.06232H5.06139C5.12725 5.06232 5.19195 5.04498 5.24898 5.01203C5.30601 4.97908 5.35335 4.9317 5.38625 4.87464C5.41915 4.81759 5.43644 4.75287 5.43639 4.68701C5.43633 4.62115 5.41893 4.55646 5.38594 4.49946L3.324 0.937142C3.29106 0.880232 3.24373 0.832984 3.18676 0.800137C3.1298 0.76729 3.0652 0.75 2.99944 0.75C2.93369 0.75 2.86909 0.76729 2.81212 0.800137C2.75516 0.832984 2.70783 0.880232 2.67489 0.937142Z" fill="#6D7692"/>
</g>
</svg>
