<svg width="17" height="16" viewBox="0 0 17 16" fill="none" xmlns="http://www.w3.org/2000/svg">
<path d="M8.5 14C11.8137 14 14.5 11.3137 14.5 8C14.5 4.68629 11.8137 2 8.5 2C5.18629 2 2.5 4.68629 2.5 8C2.5 11.3137 5.18629 14 8.5 14Z" stroke="#6D7692" stroke-linecap="round" stroke-linejoin="round"/>
<path d="M8.5 12C8.91421 12 9.25 11.6642 9.25 11.25C9.25 10.8358 8.91421 10.5 8.5 10.5C8.08579 10.5 7.75 10.8358 7.75 11.25C7.75 11.6642 8.08579 12 8.5 12Z" fill="#6D7692"/>
<path d="M8.5 9.00049V8.50049C8.84612 8.50049 9.18446 8.39785 9.47225 8.20556C9.76003 8.01327 9.98434 7.73996 10.1168 7.42019C10.2492 7.10041 10.2839 6.74855 10.2164 6.40908C10.1489 6.06961 9.98218 5.75779 9.73744 5.51305C9.4927 5.26831 9.18088 5.10164 8.84141 5.03411C8.50194 4.96659 8.15007 5.00125 7.8303 5.1337C7.51053 5.26615 7.23722 5.49046 7.04493 5.77824C6.85264 6.06603 6.75 6.40437 6.75 6.75049" stroke="#6D7692" stroke-linecap="round" stroke-linejoin="round"/>
</svg>
