<svg width="16" height="16" viewBox="0 0 16 16" fill="none" xmlns="http://www.w3.org/2000/svg">
<circle cx="8" cy="8" r="8" fill="white"/>
<circle cx="8" cy="8" r="7.7" stroke="#16202C" stroke-opacity="0.08" stroke-width="0.6"/>
<path fill-rule="evenodd" clip-rule="evenodd" d="M8 3.5C6.80455 3.5 5.83544 4.50516 5.83544 5.74508V6.25711H5V7.43873V11.0624L8 12.5L11 11.0624V7.43873V6.25711H10.1646V5.74508C10.1646 4.50516 9.19544 3.5 8 3.5ZM9.02532 6.25711V5.74508C9.02532 5.15774 8.56627 4.68162 8 4.68162C7.43373 4.68162 6.97468 5.15774 6.97468 5.74508V6.25711H9.02532ZM6.13924 10.3067V7.43873H9.86076V10.3067L8 11.1984L6.13924 10.3067Z" fill="black"/>
</svg>
