<svg width="32" height="32" viewBox="0 0 32 32" fill="none" xmlns="http://www.w3.org/2000/svg">
<path d="M16 32C24.8366 32 32 24.8366 32 16C32 7.16344 24.8366 0 16 0C7.16344 0 0 7.16344 0 16C0 24.8366 7.16344 32 16 32Z" fill="#26A17B"/>
<path d="M18.0339 16.6955C17.928 16.6955 17.3348 16.737 16.0212 16.737C14.9831 16.737 14.2416 16.7163 13.9873 16.6955C9.96187 16.5294 6.97457 15.8443 6.97457 15.0139C6.97457 14.1834 9.98306 13.4983 13.9873 13.3322V16.0104C14.2416 16.0312 15.0043 16.0727 16.0424 16.0727C17.2924 16.0727 17.9068 16.0312 18.0339 16.0104V13.3322C22.0381 13.4983 25.0466 14.1834 25.0466 15.0139C25.0466 15.8236 22.0381 16.5087 18.0339 16.6955ZM18.0339 13.0415V10.6539H23.6271V7H8.37288V10.6539H13.9661V13.0415C9.41102 13.2491 6 14.1211 6 15.1799C6 16.2388 9.43221 17.1108 13.9661 17.3184V25H18.0127V17.3184C22.589 17.1316 26 16.2595 26 15.2007C26 14.1419 22.589 13.2491 18.0339 13.0415Z" fill="white"/>
</svg>
