<svg width="16" height="16" viewBox="0 0 16 16" fill="none" xmlns="http://www.w3.org/2000/svg">
<circle cx="8" cy="8" r="8" fill="white"/>
<circle cx="8" cy="8" r="7.7" stroke="#16202C" stroke-opacity="0.08" stroke-width="0.6"/>
<path d="M5.0484 6.22139C6.67869 4.59287 9.32131 4.59287 10.9537 6.22139L11.1498 6.41715C11.2321 6.4989 11.2321 6.63013 11.1498 6.71188L10.4792 7.38308C10.4391 7.42395 10.3716 7.42395 10.3315 7.38308L10.0616 7.11417C8.92481 5.97829 7.0794 5.97829 5.94263 7.11417L5.6537 7.40244C5.61362 7.44331 5.54614 7.44331 5.50606 7.40244L4.83328 6.73124C4.75103 6.64949 4.75103 6.51826 4.83328 6.43652L5.0484 6.22139ZM12.3415 7.60681L12.9383 8.20271C13.0206 8.28446 13.0206 8.41569 12.9383 8.49744L10.2451 11.1887C10.1628 11.2704 10.0321 11.2704 9.9498 11.1887L8.03691 9.27835C8.01582 9.25899 7.98418 9.25899 7.96309 9.27835L6.0523 11.1887C5.97005 11.2704 5.83929 11.2704 5.75704 11.1887L3.06169 8.49959C2.97944 8.41784 2.97944 8.28661 3.06169 8.20487L3.65855 7.60896C3.7408 7.52721 3.87156 7.52721 3.95381 7.60896L5.86671 9.5193C5.8878 9.53866 5.91943 9.53866 5.94053 9.5193L7.85131 7.60896C7.93357 7.52721 8.06433 7.52721 8.14658 7.60896L10.0595 9.5193C10.0806 9.53866 10.1122 9.53866 10.1333 9.5193L12.0462 7.60896C12.1263 7.52506 12.2592 7.52506 12.3415 7.60681Z" fill="#3A99FB"/>
</svg>
